%TF.GenerationSoftware,KiCad,Pcbnew,9.0.7*%
%TF.CreationDate,2026-03-06T17:50:44+01:00*%
%TF.ProjectId,own_hangboard,6f776e5f-6861-46e6-9762-6f6172642e6b,rev?*%
%TF.SameCoordinates,Original*%
%TF.FileFunction,Soldermask,Top*%
%TF.FilePolarity,Negative*%
%FSLAX46Y46*%
G04 Gerber Fmt 4.6, Leading zero omitted, Abs format (unit mm)*
G04 Created by KiCad (PCBNEW 9.0.7) date 2026-03-06 17:50:44*
%MOMM*%
%LPD*%
G01*
G04 APERTURE LIST*
G04 Aperture macros list*
%AMRoundRect*
0 Rectangle with rounded corners*
0 $1 Rounding radius*
0 $2 $3 $4 $5 $6 $7 $8 $9 X,Y pos of 4 corners*
0 Add a 4 corners polygon primitive as box body*
4,1,4,$2,$3,$4,$5,$6,$7,$8,$9,$2,$3,0*
0 Add four circle primitives for the rounded corners*
1,1,$1+$1,$2,$3*
1,1,$1+$1,$4,$5*
1,1,$1+$1,$6,$7*
1,1,$1+$1,$8,$9*
0 Add four rect primitives between the rounded corners*
20,1,$1+$1,$2,$3,$4,$5,0*
20,1,$1+$1,$4,$5,$6,$7,0*
20,1,$1+$1,$6,$7,$8,$9,0*
20,1,$1+$1,$8,$9,$2,$3,0*%
%AMFreePoly0*
4,1,23,0.500000,-0.750000,0.000000,-0.750000,0.000000,-0.745722,-0.065263,-0.745722,-0.191342,-0.711940,-0.304381,-0.646677,-0.396677,-0.554381,-0.461940,-0.441342,-0.495722,-0.315263,-0.495722,-0.250000,-0.500000,-0.250000,-0.500000,0.250000,-0.495722,0.250000,-0.495722,0.315263,-0.461940,0.441342,-0.396677,0.554381,-0.304381,0.646677,-0.191342,0.711940,-0.065263,0.745722,0.000000,0.745722,
0.000000,0.750000,0.500000,0.750000,0.500000,-0.750000,0.500000,-0.750000,$1*%
%AMFreePoly1*
4,1,23,0.000000,0.745722,0.065263,0.745722,0.191342,0.711940,0.304381,0.646677,0.396677,0.554381,0.461940,0.441342,0.495722,0.315263,0.495722,0.250000,0.500000,0.250000,0.500000,-0.250000,0.495722,-0.250000,0.495722,-0.315263,0.461940,-0.441342,0.396677,-0.554381,0.304381,-0.646677,0.191342,-0.711940,0.065263,-0.745722,0.000000,-0.745722,0.000000,-0.750000,-0.500000,-0.750000,
-0.500000,0.750000,0.000000,0.750000,0.000000,0.745722,0.000000,0.745722,$1*%
G04 Aperture macros list end*
%ADD10R,1.500000X0.900000*%
%ADD11R,0.900000X1.500000*%
%ADD12C,0.600000*%
%ADD13R,3.900000X3.900000*%
%ADD14R,2.000000X2.000000*%
%ADD15RoundRect,0.250000X0.475000X-0.250000X0.475000X0.250000X-0.475000X0.250000X-0.475000X-0.250000X0*%
%ADD16RoundRect,0.250000X-0.475000X0.250000X-0.475000X-0.250000X0.475000X-0.250000X0.475000X0.250000X0*%
%ADD17RoundRect,0.250000X-0.250000X-0.475000X0.250000X-0.475000X0.250000X0.475000X-0.250000X0.475000X0*%
%ADD18FreePoly0,180.000000*%
%ADD19FreePoly1,180.000000*%
%ADD20R,0.350000X0.650000*%
%ADD21R,2.400000X1.550000*%
%ADD22RoundRect,0.250000X0.250000X0.475000X-0.250000X0.475000X-0.250000X-0.475000X0.250000X-0.475000X0*%
%ADD23RoundRect,0.250000X-0.325000X-0.650000X0.325000X-0.650000X0.325000X0.650000X-0.325000X0.650000X0*%
%ADD24RoundRect,0.250000X0.325000X0.650000X-0.325000X0.650000X-0.325000X-0.650000X0.325000X-0.650000X0*%
%ADD25RoundRect,0.250000X-0.650000X0.325000X-0.650000X-0.325000X0.650000X-0.325000X0.650000X0.325000X0*%
%ADD26FreePoly0,90.000000*%
%ADD27FreePoly1,90.000000*%
%ADD28RoundRect,0.150000X-0.825000X-0.150000X0.825000X-0.150000X0.825000X0.150000X-0.825000X0.150000X0*%
%ADD29RoundRect,0.150000X0.587500X0.150000X-0.587500X0.150000X-0.587500X-0.150000X0.587500X-0.150000X0*%
%ADD30FreePoly0,270.000000*%
%ADD31FreePoly1,270.000000*%
%ADD32O,0.800000X0.800000*%
%ADD33R,1.300000X0.450000*%
%ADD34O,1.800000X1.150000*%
%ADD35O,2.000000X1.450000*%
G04 APERTURE END LIST*
%TO.C,JP2*%
G36*
X73650000Y-139750000D02*
G01*
X73350000Y-139750000D01*
X73350000Y-138250000D01*
X73650000Y-138250000D01*
X73650000Y-139750000D01*
G37*
%TO.C,JP1*%
G36*
X75725000Y-111850000D02*
G01*
X77225000Y-111850000D01*
X77225000Y-111550000D01*
X75725000Y-111550000D01*
X75725000Y-111850000D01*
G37*
%TO.C,JP3*%
G36*
X49250000Y-123850000D02*
G01*
X47750000Y-123850000D01*
X47750000Y-124150000D01*
X49250000Y-124150000D01*
X49250000Y-123850000D01*
G37*
%TD*%
D10*
%TO.C,U1*%
X68650000Y-147220000D03*
X68650000Y-145950000D03*
X68650000Y-144680000D03*
X68650000Y-143410000D03*
X68650000Y-142140000D03*
X68650000Y-140870000D03*
X68650000Y-139600000D03*
X68650000Y-138330000D03*
X68650000Y-137060000D03*
X68650000Y-135790000D03*
X68650000Y-134520000D03*
X68650000Y-133250000D03*
X68650000Y-131980000D03*
X68650000Y-130710000D03*
D11*
X66885000Y-129460000D03*
X65615000Y-129460000D03*
X64345000Y-129460000D03*
X63075000Y-129460000D03*
X61805000Y-129460000D03*
X60535000Y-129460000D03*
X59265000Y-129460000D03*
X57995000Y-129460000D03*
X56725000Y-129460000D03*
X55455000Y-129460000D03*
X54185000Y-129460000D03*
X52915000Y-129460000D03*
D10*
X51150000Y-130710000D03*
X51150000Y-131980000D03*
X51150000Y-133250000D03*
X51150000Y-134520000D03*
X51150000Y-135790000D03*
X51150000Y-137060000D03*
X51150000Y-138330000D03*
X51150000Y-139600000D03*
X51150000Y-140870000D03*
X51150000Y-142140000D03*
X51150000Y-143410000D03*
X51150000Y-144680000D03*
X51150000Y-145950000D03*
X51150000Y-147220000D03*
D12*
X62800000Y-140200000D03*
X62800000Y-138800000D03*
X62100000Y-140900000D03*
X62100000Y-139500000D03*
X62100000Y-138100000D03*
X61400000Y-140200000D03*
D13*
X61400000Y-139500000D03*
D12*
X61400000Y-138800000D03*
X60700000Y-140900000D03*
X60700000Y-139500000D03*
X60700000Y-138100000D03*
X60000000Y-140200000D03*
X60000000Y-138800000D03*
%TD*%
D14*
%TO.C,usb_gnd1*%
X77500000Y-121500000D03*
%TD*%
D15*
%TO.C,R8*%
X56000000Y-124950000D03*
X56000000Y-123050000D03*
%TD*%
D16*
%TO.C,R4*%
X57475000Y-112050000D03*
X57475000Y-113950000D03*
%TD*%
%TO.C,R1*%
X76475000Y-107100000D03*
X76475000Y-109000000D03*
%TD*%
D14*
%TO.C,gnd1*%
X42000000Y-125000000D03*
%TD*%
D17*
%TO.C,R2*%
X53575000Y-120500000D03*
X55475000Y-120500000D03*
%TD*%
D14*
%TO.C,bms_out_+1*%
X77500000Y-118500000D03*
%TD*%
D16*
%TO.C,R3*%
X54475000Y-110050000D03*
X54475000Y-111950000D03*
%TD*%
D15*
%TO.C,C11*%
X57475000Y-120450000D03*
X57475000Y-118550000D03*
%TD*%
D18*
%TO.C,JP2*%
X74150000Y-139000000D03*
D19*
X72850000Y-139000000D03*
%TD*%
D20*
%TO.C,U2*%
X43425000Y-140437500D03*
X44075000Y-140437500D03*
X44725000Y-140437500D03*
X45375000Y-140437500D03*
X45375000Y-137337500D03*
X44725000Y-137337500D03*
X44075000Y-137337500D03*
X43425000Y-137337500D03*
D21*
X44400000Y-138887500D03*
%TD*%
D22*
%TO.C,C10*%
X59475000Y-116000000D03*
X57575000Y-116000000D03*
%TD*%
D17*
%TO.C,C1*%
X44050000Y-134500000D03*
X45950000Y-134500000D03*
%TD*%
%TO.C,R5*%
X53575000Y-118500000D03*
X55475000Y-118500000D03*
%TD*%
D16*
%TO.C,C13*%
X72000000Y-145600000D03*
X72000000Y-147500000D03*
%TD*%
D23*
%TO.C,C2*%
X42872500Y-132000000D03*
X45822500Y-132000000D03*
%TD*%
D17*
%TO.C,C3*%
X43397500Y-143500000D03*
X45297500Y-143500000D03*
%TD*%
D22*
%TO.C,R6*%
X74450000Y-143500000D03*
X72550000Y-143500000D03*
%TD*%
D14*
%TO.C,V+1*%
X42000000Y-122000000D03*
%TD*%
%TO.C,bms_out_-1*%
X77500000Y-115428571D03*
%TD*%
D16*
%TO.C,C9*%
X42000000Y-111050000D03*
X42000000Y-112950000D03*
%TD*%
%TO.C,R7*%
X51000000Y-122900000D03*
X51000000Y-124800000D03*
%TD*%
D14*
%TO.C,A-1*%
X42000000Y-116000000D03*
%TD*%
%TO.C,A+1*%
X42000000Y-119000000D03*
%TD*%
D24*
%TO.C,C7*%
X65975000Y-105365000D03*
X63025000Y-105365000D03*
%TD*%
D25*
%TO.C,C8*%
X44475000Y-110025000D03*
X44475000Y-112975000D03*
%TD*%
D22*
%TO.C,C5*%
X65450000Y-107865000D03*
X63550000Y-107865000D03*
%TD*%
D17*
%TO.C,C12*%
X72550000Y-141500000D03*
X74450000Y-141500000D03*
%TD*%
D26*
%TO.C,JP1*%
X76475000Y-112350000D03*
D27*
X76475000Y-111050000D03*
%TD*%
D28*
%TO.C,U3*%
X65500000Y-110055000D03*
X65500000Y-111325000D03*
X65500000Y-112595000D03*
X65500000Y-113865000D03*
X65500000Y-115135000D03*
X65500000Y-116405000D03*
X65500000Y-117675000D03*
X65500000Y-118945000D03*
X70450000Y-118945000D03*
X70450000Y-117675000D03*
X70450000Y-116405000D03*
X70450000Y-115135000D03*
X70450000Y-113865000D03*
X70450000Y-112595000D03*
X70450000Y-111325000D03*
X70450000Y-110055000D03*
%TD*%
D29*
%TO.C,Q1*%
X58975000Y-109500000D03*
X58975000Y-107600000D03*
X57100000Y-108550000D03*
%TD*%
D17*
%TO.C,C6*%
X70050000Y-107865000D03*
X71950000Y-107865000D03*
%TD*%
D23*
%TO.C,C4*%
X42872500Y-146000000D03*
X45822500Y-146000000D03*
%TD*%
D30*
%TO.C,JP3*%
X48500000Y-123350000D03*
D31*
X48500000Y-124650000D03*
%TD*%
D32*
%TO.C,J1*%
X74100000Y-133850000D03*
X74100000Y-128850000D03*
D33*
X73000000Y-132650000D03*
X73000000Y-132000000D03*
X73000000Y-131350000D03*
X73000000Y-130700000D03*
X73000000Y-130050000D03*
D34*
X76850000Y-135225000D03*
D35*
X73050000Y-135075000D03*
X73050000Y-127625000D03*
D34*
X76850000Y-127475000D03*
%TD*%
D23*
%TO.C,L1*%
X47500000Y-110000000D03*
X50450000Y-110000000D03*
%TD*%
D14*
%TO.C,vbus1*%
X77500000Y-124500000D03*
%TD*%
M02*
