M48
; DRILL file {KiCad 9.0.7} date 2026-03-06T17:50:47+0100
; FORMAT={-:-/ absolute / metric / decimal}
; #@! TF.CreationDate,2026-03-06T17:50:47+01:00
; #@! TF.GenerationSoftware,Kicad,Pcbnew,9.0.7
; #@! TF.FileFunction,Plated,1,2,PTH
FMAT,2
METRIC
; #@! TA.AperFunction,Plated,PTH,ViaDrill
T1C0.300
; #@! TA.AperFunction,Plated,PTH,ComponentDrill
T2C0.300
; #@! TA.AperFunction,Plated,PTH,ComponentDrill
T3C0.550
; #@! TA.AperFunction,Plated,PTH,ComponentDrill
T4C0.850
%
G90
G05
T1
X41.0Y-127.5
X42.0Y-105.5
X45.5Y-121.0
X45.5Y-127.0
X46.0Y-106.0
X46.5Y-126.0
X46.5Y-136.5
X48.0Y-129.5
X48.5Y-113.0
X48.5Y-134.0
X48.5Y-145.0
X49.0Y-120.5
X52.0Y-106.5
X52.5Y-113.0
X55.0Y-132.0
X56.5Y-140.5
X57.0Y-146.0
X58.0Y-105.5
X62.0Y-115.0
X62.0Y-133.0
X62.0Y-145.0
X62.5Y-122.0
X64.5Y-140.0
X65.5Y-122.5
X66.5Y-146.5
X68.5Y-109.0
X68.5Y-121.0
X70.5Y-142.0
X70.5Y-143.5
X71.5Y-137.0
X73.0Y-113.5
X73.0Y-119.5
X73.5Y-115.5
X73.5Y-116.5
X74.0Y-107.5
X74.5Y-113.0
X75.0Y-114.0
X75.5Y-115.0
X77.0Y-146.5
X77.5Y-113.5
X78.0Y-137.5
T2
X60.0Y-138.8
X60.0Y-140.2
X60.7Y-138.1
X60.7Y-139.5
X60.7Y-140.9
X61.4Y-138.8
X61.4Y-140.2
X62.1Y-138.1
X62.1Y-139.5
X62.1Y-140.9
X62.8Y-138.8
X62.8Y-140.2
T3
G00X76.525Y-127.475
M15
G01X77.175Y-127.475
M16
G05
G00X76.525Y-135.225
M15
G01X77.175Y-135.225
M16
G05
T4
G00X72.775Y-127.625
M15
G01X73.325Y-127.625
M16
G05
G00X72.775Y-135.075
M15
G01X73.325Y-135.075
M16
G05
M30
