%TF.GenerationSoftware,KiCad,Pcbnew,9.0.7*%
%TF.CreationDate,2026-03-06T17:50:44+01:00*%
%TF.ProjectId,own_hangboard,6f776e5f-6861-46e6-9762-6f6172642e6b,rev?*%
%TF.SameCoordinates,Original*%
%TF.FileFunction,Copper,L2,Bot*%
%TF.FilePolarity,Positive*%
%FSLAX46Y46*%
G04 Gerber Fmt 4.6, Leading zero omitted, Abs format (unit mm)*
G04 Created by KiCad (PCBNEW 9.0.7) date 2026-03-06 17:50:44*
%MOMM*%
%LPD*%
G01*
G04 APERTURE LIST*
%TA.AperFunction,HeatsinkPad*%
%ADD10C,0.600000*%
%TD*%
%TA.AperFunction,HeatsinkPad*%
%ADD11O,1.800000X1.150000*%
%TD*%
%TA.AperFunction,HeatsinkPad*%
%ADD12O,2.000000X1.450000*%
%TD*%
%TA.AperFunction,ViaPad*%
%ADD13C,0.600000*%
%TD*%
%TA.AperFunction,Conductor*%
%ADD14C,0.400000*%
%TD*%
%TA.AperFunction,Conductor*%
%ADD15C,0.250000*%
%TD*%
G04 APERTURE END LIST*
D10*
%TO.P,U1,41,GND*%
%TO.N,gnd*%
X62800000Y-140200000D03*
X62800000Y-138800000D03*
X62100000Y-140900000D03*
X62100000Y-139500000D03*
X62100000Y-138100000D03*
X61400000Y-140200000D03*
X61400000Y-138800000D03*
X60700000Y-140900000D03*
X60700000Y-139500000D03*
X60700000Y-138100000D03*
X60000000Y-140200000D03*
X60000000Y-138800000D03*
%TD*%
D11*
%TO.P,J1,6,Shield*%
%TO.N,Net-(J1-GND)*%
X76850000Y-135225000D03*
D12*
X73050000Y-135075000D03*
X73050000Y-127625000D03*
D11*
X76850000Y-127475000D03*
%TD*%
D13*
%TO.N,+3.3V*%
X66500000Y-146500000D03*
X46500000Y-136500000D03*
%TO.N,gnd*%
X75500000Y-115000000D03*
X62000000Y-145000000D03*
X49000000Y-120500000D03*
X75000000Y-114000000D03*
X68500000Y-109000000D03*
X58000000Y-105500000D03*
X42000000Y-105500000D03*
X48500000Y-145000000D03*
X52000000Y-106500000D03*
X78000000Y-137500000D03*
X55000000Y-132000000D03*
X45500000Y-127000000D03*
X64500000Y-140000000D03*
X68500000Y-121000000D03*
X77500000Y-113500000D03*
X56500000Y-140500000D03*
X71500000Y-137000000D03*
X48500000Y-134000000D03*
X48500000Y-113000000D03*
X48000000Y-129500000D03*
X62000000Y-115000000D03*
X46000000Y-106000000D03*
X46500000Y-126000000D03*
X74500000Y-113000000D03*
X57000000Y-146000000D03*
X52500000Y-113000000D03*
X74000000Y-107500000D03*
X62000000Y-133000000D03*
X73000000Y-119500000D03*
X41000000Y-127500000D03*
X45500000Y-121000000D03*
X77000000Y-146500000D03*
X73000000Y-113500000D03*
%TO.N,sck*%
X70500000Y-143500000D03*
X73500000Y-116500000D03*
%TO.N,data*%
X73500000Y-115500000D03*
X70500000Y-142000000D03*
%TO.N,Vbat*%
X62500000Y-122000000D03*
X65500000Y-122500000D03*
%TD*%
D14*
%TO.N,+3.3V*%
X48750000Y-138750000D02*
X49500000Y-139500000D01*
X65000000Y-148000000D02*
X66500000Y-146500000D01*
X49500000Y-146500000D02*
X51000000Y-148000000D01*
X49500000Y-139500000D02*
X49500000Y-146500000D01*
X46500000Y-136500000D02*
X48750000Y-138750000D01*
X51000000Y-148000000D02*
X65000000Y-148000000D01*
D15*
%TO.N,sck*%
X70500000Y-143500000D02*
X75500000Y-138500000D01*
X75500000Y-118500000D02*
X73500000Y-116500000D01*
X75500000Y-138500000D02*
X75500000Y-118500000D01*
%TO.N,data*%
X72874000Y-116126000D02*
X72874000Y-116874000D01*
X75000000Y-119000000D02*
X75000000Y-137500000D01*
X75000000Y-137500000D02*
X70500000Y-142000000D01*
X73500000Y-115500000D02*
X72874000Y-116126000D01*
X72874000Y-116874000D02*
X75000000Y-119000000D01*
D14*
%TO.N,Vbat*%
X63000000Y-122500000D02*
X62500000Y-122000000D01*
X65500000Y-122500000D02*
X63000000Y-122500000D01*
%TD*%
%TA.AperFunction,Conductor*%
%TO.N,gnd*%
G36*
X79442539Y-104020185D02*
G01*
X79488294Y-104072989D01*
X79499500Y-104124500D01*
X79499500Y-148375500D01*
X79479815Y-148442539D01*
X79427011Y-148488294D01*
X79375500Y-148499500D01*
X65790519Y-148499500D01*
X65723480Y-148479815D01*
X65677725Y-148427011D01*
X65667781Y-148357853D01*
X65696806Y-148294297D01*
X65702838Y-148287819D01*
X65846477Y-148144179D01*
X66694587Y-147296068D01*
X66734808Y-147269193D01*
X66879179Y-147209394D01*
X67010289Y-147121789D01*
X67121789Y-147010289D01*
X67209394Y-146879179D01*
X67269737Y-146733497D01*
X67300500Y-146578842D01*
X67300500Y-146421158D01*
X67300500Y-146421155D01*
X67300499Y-146421153D01*
X67269737Y-146266503D01*
X67235911Y-146184839D01*
X67209397Y-146120827D01*
X67209390Y-146120814D01*
X67121789Y-145989711D01*
X67121786Y-145989707D01*
X67010292Y-145878213D01*
X67010288Y-145878210D01*
X66879185Y-145790609D01*
X66879172Y-145790602D01*
X66733501Y-145730264D01*
X66733489Y-145730261D01*
X66578845Y-145699500D01*
X66578842Y-145699500D01*
X66421158Y-145699500D01*
X66421155Y-145699500D01*
X66266510Y-145730261D01*
X66266498Y-145730264D01*
X66120827Y-145790602D01*
X66120814Y-145790609D01*
X65989711Y-145878210D01*
X65989707Y-145878213D01*
X65878213Y-145989707D01*
X65878210Y-145989711D01*
X65790609Y-146120814D01*
X65790604Y-146120824D01*
X65730808Y-146265185D01*
X65703928Y-146305413D01*
X64746162Y-147263181D01*
X64684839Y-147296666D01*
X64658481Y-147299500D01*
X51341518Y-147299500D01*
X51274479Y-147279815D01*
X51253837Y-147263181D01*
X50236819Y-146246162D01*
X50203334Y-146184839D01*
X50200500Y-146158481D01*
X50200500Y-141921153D01*
X69699500Y-141921153D01*
X69699500Y-142078846D01*
X69730261Y-142233489D01*
X69730264Y-142233501D01*
X69790602Y-142379172D01*
X69790609Y-142379185D01*
X69878210Y-142510288D01*
X69878213Y-142510292D01*
X69989707Y-142621786D01*
X70027289Y-142646898D01*
X70072093Y-142700511D01*
X70080800Y-142769836D01*
X70050645Y-142832863D01*
X70027289Y-142853102D01*
X69989707Y-142878213D01*
X69878213Y-142989707D01*
X69878210Y-142989711D01*
X69790609Y-143120814D01*
X69790602Y-143120827D01*
X69730264Y-143266498D01*
X69730261Y-143266510D01*
X69699500Y-143421153D01*
X69699500Y-143578846D01*
X69730261Y-143733489D01*
X69730264Y-143733501D01*
X69790602Y-143879172D01*
X69790609Y-143879185D01*
X69878210Y-144010288D01*
X69878213Y-144010292D01*
X69989707Y-144121786D01*
X69989711Y-144121789D01*
X70120814Y-144209390D01*
X70120827Y-144209397D01*
X70266498Y-144269735D01*
X70266503Y-144269737D01*
X70421153Y-144300499D01*
X70421156Y-144300500D01*
X70421158Y-144300500D01*
X70578844Y-144300500D01*
X70578845Y-144300499D01*
X70733497Y-144269737D01*
X70879179Y-144209394D01*
X71010289Y-144121789D01*
X71121789Y-144010289D01*
X71209394Y-143879179D01*
X71269737Y-143733497D01*
X71291858Y-143622282D01*
X71324240Y-143560375D01*
X71325735Y-143558853D01*
X75898729Y-138985860D01*
X75898733Y-138985858D01*
X75985858Y-138898733D01*
X76039138Y-138818994D01*
X76054312Y-138796285D01*
X76101463Y-138682451D01*
X76101751Y-138681006D01*
X76125500Y-138561606D01*
X76125500Y-136395817D01*
X76145185Y-136328778D01*
X76197989Y-136283023D01*
X76267147Y-136273079D01*
X76268898Y-136273344D01*
X76440351Y-136300500D01*
X76440356Y-136300500D01*
X77259649Y-136300500D01*
X77426847Y-136274018D01*
X77449954Y-136266510D01*
X77587849Y-136221705D01*
X77738685Y-136144850D01*
X77875641Y-136045346D01*
X77995346Y-135925641D01*
X78094850Y-135788685D01*
X78171705Y-135637849D01*
X78224018Y-135476847D01*
X78250500Y-135309649D01*
X78250500Y-135140350D01*
X78224018Y-134973152D01*
X78171703Y-134812146D01*
X78143820Y-134757425D01*
X78094850Y-134661315D01*
X78053621Y-134604568D01*
X77995351Y-134524365D01*
X77995347Y-134524360D01*
X77875639Y-134404652D01*
X77875634Y-134404648D01*
X77738688Y-134305152D01*
X77738687Y-134305151D01*
X77738685Y-134305150D01*
X77682727Y-134276638D01*
X77587853Y-134228296D01*
X77426847Y-134175981D01*
X77259649Y-134149500D01*
X77259644Y-134149500D01*
X76440356Y-134149500D01*
X76440351Y-134149500D01*
X76268898Y-134176655D01*
X76199604Y-134167700D01*
X76146152Y-134122704D01*
X76125513Y-134055952D01*
X76125500Y-134054182D01*
X76125500Y-128645817D01*
X76145185Y-128578778D01*
X76197989Y-128533023D01*
X76267147Y-128523079D01*
X76268898Y-128523344D01*
X76440351Y-128550500D01*
X76440356Y-128550500D01*
X77259649Y-128550500D01*
X77426847Y-128524018D01*
X77429737Y-128523079D01*
X77587849Y-128471705D01*
X77738685Y-128394850D01*
X77875641Y-128295346D01*
X77995346Y-128175641D01*
X78094850Y-128038685D01*
X78171705Y-127887849D01*
X78224018Y-127726847D01*
X78224873Y-127721448D01*
X78250500Y-127559649D01*
X78250500Y-127390350D01*
X78224018Y-127223152D01*
X78171703Y-127062146D01*
X78132580Y-126985365D01*
X78094850Y-126911315D01*
X78033329Y-126826638D01*
X77995351Y-126774365D01*
X77995347Y-126774360D01*
X77875639Y-126654652D01*
X77875634Y-126654648D01*
X77738688Y-126555152D01*
X77738687Y-126555151D01*
X77738685Y-126555150D01*
X77691582Y-126531150D01*
X77587853Y-126478296D01*
X77426847Y-126425981D01*
X77259649Y-126399500D01*
X77259644Y-126399500D01*
X76440356Y-126399500D01*
X76440351Y-126399500D01*
X76268898Y-126426655D01*
X76199604Y-126417700D01*
X76146152Y-126372704D01*
X76125513Y-126305952D01*
X76125500Y-126304182D01*
X76125500Y-118438396D01*
X76125500Y-118438394D01*
X76101463Y-118317548D01*
X76087652Y-118284207D01*
X76054312Y-118203714D01*
X76020084Y-118152490D01*
X75985858Y-118101267D01*
X75985856Y-118101264D01*
X75895637Y-118011045D01*
X75895606Y-118011016D01*
X74325793Y-116441203D01*
X74292308Y-116379880D01*
X74291887Y-116377864D01*
X74269737Y-116266503D01*
X74209394Y-116120821D01*
X74174694Y-116068889D01*
X74153816Y-116002215D01*
X74172300Y-115934835D01*
X74174676Y-115931136D01*
X74209394Y-115879179D01*
X74269737Y-115733497D01*
X74300500Y-115578842D01*
X74300500Y-115421158D01*
X74300500Y-115421155D01*
X74300499Y-115421153D01*
X74269738Y-115266510D01*
X74269738Y-115266508D01*
X74269737Y-115266503D01*
X74269735Y-115266498D01*
X74209397Y-115120827D01*
X74209390Y-115120814D01*
X74121789Y-114989711D01*
X74121786Y-114989707D01*
X74010292Y-114878213D01*
X74010288Y-114878210D01*
X73879185Y-114790609D01*
X73879172Y-114790602D01*
X73733501Y-114730264D01*
X73733489Y-114730261D01*
X73578845Y-114699500D01*
X73578842Y-114699500D01*
X73421158Y-114699500D01*
X73421155Y-114699500D01*
X73266510Y-114730261D01*
X73266498Y-114730264D01*
X73120827Y-114790602D01*
X73120814Y-114790609D01*
X72989711Y-114878210D01*
X72989707Y-114878213D01*
X72878213Y-114989707D01*
X72878210Y-114989711D01*
X72790609Y-115120814D01*
X72790602Y-115120827D01*
X72730264Y-115266498D01*
X72730261Y-115266508D01*
X72708141Y-115377714D01*
X72675756Y-115439625D01*
X72674205Y-115441203D01*
X72475269Y-115640140D01*
X72388144Y-115727264D01*
X72388138Y-115727272D01*
X72319690Y-115829708D01*
X72319688Y-115829713D01*
X72291181Y-115898537D01*
X72272538Y-115943544D01*
X72272535Y-115943556D01*
X72248500Y-116064389D01*
X72248500Y-116935611D01*
X72272535Y-117056444D01*
X72272540Y-117056461D01*
X72319685Y-117170281D01*
X72319688Y-117170286D01*
X72345820Y-117209394D01*
X72388142Y-117272733D01*
X72475267Y-117359858D01*
X72475270Y-117359860D01*
X72482916Y-117367506D01*
X74338181Y-119222771D01*
X74371666Y-119284094D01*
X74374500Y-119310452D01*
X74374500Y-126642020D01*
X74354815Y-126709059D01*
X74302011Y-126754814D01*
X74232853Y-126764758D01*
X74169297Y-126735733D01*
X74162819Y-126729701D01*
X74123361Y-126690243D01*
X74123359Y-126690241D01*
X73967302Y-126576859D01*
X73795429Y-126489285D01*
X73611972Y-126429676D01*
X73611970Y-126429675D01*
X73611969Y-126429675D01*
X73465614Y-126406495D01*
X73421449Y-126399500D01*
X72678551Y-126399500D01*
X72642697Y-126405178D01*
X72488030Y-126429675D01*
X72304568Y-126489286D01*
X72132697Y-126576859D01*
X72043661Y-126641547D01*
X71976641Y-126690241D01*
X71976639Y-126690243D01*
X71976638Y-126690243D01*
X71840243Y-126826638D01*
X71840243Y-126826639D01*
X71840241Y-126826641D01*
X71791547Y-126893661D01*
X71726859Y-126982697D01*
X71639286Y-127154568D01*
X71579675Y-127338030D01*
X71549500Y-127528551D01*
X71549500Y-127721448D01*
X71579675Y-127911969D01*
X71579676Y-127911972D01*
X71639285Y-128095429D01*
X71726859Y-128267302D01*
X71840241Y-128423359D01*
X71976641Y-128559759D01*
X72132698Y-128673141D01*
X72304571Y-128760715D01*
X72488028Y-128820324D01*
X72678551Y-128850500D01*
X73080193Y-128850500D01*
X73147232Y-128870185D01*
X73192987Y-128922989D01*
X73201810Y-128950308D01*
X73234104Y-129112659D01*
X73234106Y-129112667D01*
X73301983Y-129276540D01*
X73301990Y-129276553D01*
X73400535Y-129424034D01*
X73400538Y-129424038D01*
X73525961Y-129549461D01*
X73525965Y-129549464D01*
X73673446Y-129648009D01*
X73673459Y-129648016D01*
X73796363Y-129698923D01*
X73837334Y-129715894D01*
X73837336Y-129715894D01*
X73837341Y-129715896D01*
X74011304Y-129750499D01*
X74011307Y-129750500D01*
X74011309Y-129750500D01*
X74188691Y-129750500D01*
X74226308Y-129743017D01*
X74295898Y-129749243D01*
X74351076Y-129792105D01*
X74374322Y-129857994D01*
X74374500Y-129864634D01*
X74374500Y-132835365D01*
X74354815Y-132902404D01*
X74302011Y-132948159D01*
X74232853Y-132958103D01*
X74226309Y-132956982D01*
X74188694Y-132949500D01*
X74188691Y-132949500D01*
X74011309Y-132949500D01*
X74011306Y-132949500D01*
X73837341Y-132984103D01*
X73837332Y-132984106D01*
X73673459Y-133051983D01*
X73673446Y-133051990D01*
X73525965Y-133150535D01*
X73525961Y-133150538D01*
X73400538Y-133275961D01*
X73400535Y-133275965D01*
X73301990Y-133423446D01*
X73301983Y-133423459D01*
X73234106Y-133587332D01*
X73234104Y-133587340D01*
X73201810Y-133749692D01*
X73169425Y-133811603D01*
X73108709Y-133846177D01*
X73080193Y-133849500D01*
X72678551Y-133849500D01*
X72642697Y-133855178D01*
X72488030Y-133879675D01*
X72304568Y-133939286D01*
X72132697Y-134026859D01*
X72043661Y-134091547D01*
X71976641Y-134140241D01*
X71976639Y-134140243D01*
X71976638Y-134140243D01*
X71840243Y-134276638D01*
X71840243Y-134276639D01*
X71840241Y-134276641D01*
X71819528Y-134305150D01*
X71726859Y-134432697D01*
X71639286Y-134604568D01*
X71579675Y-134788030D01*
X71549500Y-134978551D01*
X71549500Y-135171448D01*
X71579675Y-135361969D01*
X71579676Y-135361972D01*
X71639285Y-135545429D01*
X71726859Y-135717302D01*
X71840241Y-135873359D01*
X71976641Y-136009759D01*
X72132698Y-136123141D01*
X72304571Y-136210715D01*
X72488028Y-136270324D01*
X72678551Y-136300500D01*
X72678552Y-136300500D01*
X73421448Y-136300500D01*
X73421449Y-136300500D01*
X73611972Y-136270324D01*
X73795429Y-136210715D01*
X73967302Y-136123141D01*
X74123359Y-136009759D01*
X74162819Y-135970299D01*
X74224142Y-135936814D01*
X74293834Y-135941798D01*
X74349767Y-135983670D01*
X74374184Y-136049134D01*
X74374500Y-136057980D01*
X74374500Y-137189547D01*
X74354815Y-137256586D01*
X74338181Y-137277228D01*
X70441203Y-141174205D01*
X70379880Y-141207690D01*
X70377714Y-141208141D01*
X70266508Y-141230261D01*
X70266498Y-141230264D01*
X70120827Y-141290602D01*
X70120814Y-141290609D01*
X69989711Y-141378210D01*
X69989707Y-141378213D01*
X69878213Y-141489707D01*
X69878210Y-141489711D01*
X69790609Y-141620814D01*
X69790602Y-141620827D01*
X69730264Y-141766498D01*
X69730261Y-141766510D01*
X69699500Y-141921153D01*
X50200500Y-141921153D01*
X50200500Y-139431004D01*
X50173581Y-139295677D01*
X50173580Y-139295676D01*
X50173580Y-139295672D01*
X50132520Y-139196543D01*
X50120778Y-139168195D01*
X50120776Y-139168191D01*
X50120775Y-139168189D01*
X50063059Y-139081811D01*
X50063057Y-139081808D01*
X50044116Y-139053459D01*
X47296071Y-136305414D01*
X47269191Y-136265185D01*
X47209397Y-136120827D01*
X47209390Y-136120814D01*
X47121789Y-135989711D01*
X47121786Y-135989707D01*
X47010292Y-135878213D01*
X47010288Y-135878210D01*
X46879185Y-135790609D01*
X46879172Y-135790602D01*
X46733501Y-135730264D01*
X46733489Y-135730261D01*
X46578845Y-135699500D01*
X46578842Y-135699500D01*
X46421158Y-135699500D01*
X46421155Y-135699500D01*
X46266510Y-135730261D01*
X46266498Y-135730264D01*
X46120827Y-135790602D01*
X46120814Y-135790609D01*
X45989711Y-135878210D01*
X45989707Y-135878213D01*
X45878213Y-135989707D01*
X45878210Y-135989711D01*
X45790609Y-136120814D01*
X45790602Y-136120827D01*
X45730264Y-136266498D01*
X45730261Y-136266510D01*
X45699500Y-136421153D01*
X45699500Y-136578846D01*
X45730261Y-136733489D01*
X45730264Y-136733501D01*
X45790602Y-136879172D01*
X45790609Y-136879185D01*
X45878210Y-137010288D01*
X45878213Y-137010292D01*
X45989707Y-137121786D01*
X45989711Y-137121789D01*
X46120814Y-137209390D01*
X46120827Y-137209397D01*
X46265185Y-137269191D01*
X46305414Y-137296071D01*
X48763181Y-139753838D01*
X48796666Y-139815161D01*
X48799500Y-139841519D01*
X48799500Y-146431006D01*
X48799500Y-146568994D01*
X48799500Y-146568996D01*
X48799499Y-146568996D01*
X48826418Y-146704322D01*
X48826421Y-146704332D01*
X48879222Y-146831807D01*
X48955887Y-146946545D01*
X48955888Y-146946546D01*
X50297163Y-148287819D01*
X50330648Y-148349142D01*
X50325664Y-148418833D01*
X50283793Y-148474767D01*
X50218328Y-148499184D01*
X50209482Y-148499500D01*
X40124500Y-148499500D01*
X40057461Y-148479815D01*
X40011706Y-148427011D01*
X40000500Y-148375500D01*
X40000500Y-121921153D01*
X61699500Y-121921153D01*
X61699500Y-122078846D01*
X61730261Y-122233489D01*
X61730264Y-122233501D01*
X61790602Y-122379172D01*
X61790609Y-122379185D01*
X61878210Y-122510288D01*
X61878213Y-122510292D01*
X61989707Y-122621786D01*
X61989711Y-122621789D01*
X62120814Y-122709390D01*
X62120827Y-122709397D01*
X62265185Y-122769191D01*
X62305414Y-122796071D01*
X62553453Y-123044111D01*
X62553454Y-123044112D01*
X62668192Y-123120777D01*
X62795667Y-123173578D01*
X62795672Y-123173580D01*
X62795676Y-123173580D01*
X62795677Y-123173581D01*
X62931003Y-123200500D01*
X62931006Y-123200500D01*
X62931007Y-123200500D01*
X65074684Y-123200500D01*
X65122136Y-123209939D01*
X65266498Y-123269735D01*
X65266503Y-123269737D01*
X65421153Y-123300499D01*
X65421156Y-123300500D01*
X65421158Y-123300500D01*
X65578844Y-123300500D01*
X65578845Y-123300499D01*
X65733497Y-123269737D01*
X65879179Y-123209394D01*
X66010289Y-123121789D01*
X66121789Y-123010289D01*
X66209394Y-122879179D01*
X66269737Y-122733497D01*
X66300500Y-122578842D01*
X66300500Y-122421158D01*
X66300500Y-122421155D01*
X66300499Y-122421153D01*
X66269738Y-122266510D01*
X66269737Y-122266503D01*
X66256062Y-122233489D01*
X66209397Y-122120827D01*
X66209390Y-122120814D01*
X66121789Y-121989711D01*
X66121786Y-121989707D01*
X66010292Y-121878213D01*
X66010288Y-121878210D01*
X65879185Y-121790609D01*
X65879172Y-121790602D01*
X65733501Y-121730264D01*
X65733489Y-121730261D01*
X65578845Y-121699500D01*
X65578842Y-121699500D01*
X65421158Y-121699500D01*
X65421155Y-121699500D01*
X65266510Y-121730261D01*
X65266498Y-121730264D01*
X65122136Y-121790061D01*
X65074684Y-121799500D01*
X63366259Y-121799500D01*
X63299220Y-121779815D01*
X63253465Y-121727011D01*
X63251698Y-121722952D01*
X63209397Y-121620827D01*
X63209390Y-121620814D01*
X63121789Y-121489711D01*
X63121786Y-121489707D01*
X63010292Y-121378213D01*
X63010288Y-121378210D01*
X62879185Y-121290609D01*
X62879172Y-121290602D01*
X62733501Y-121230264D01*
X62733489Y-121230261D01*
X62578845Y-121199500D01*
X62578842Y-121199500D01*
X62421158Y-121199500D01*
X62421155Y-121199500D01*
X62266510Y-121230261D01*
X62266498Y-121230264D01*
X62120827Y-121290602D01*
X62120814Y-121290609D01*
X61989711Y-121378210D01*
X61989707Y-121378213D01*
X61878213Y-121489707D01*
X61878210Y-121489711D01*
X61790609Y-121620814D01*
X61790602Y-121620827D01*
X61730264Y-121766498D01*
X61730261Y-121766510D01*
X61699500Y-121921153D01*
X40000500Y-121921153D01*
X40000500Y-104124500D01*
X40020185Y-104057461D01*
X40072989Y-104011706D01*
X40124500Y-104000500D01*
X79375500Y-104000500D01*
X79442539Y-104020185D01*
G37*
%TD.AperFunction*%
%TD*%
M02*
